<?xml version="1.0" encoding="utf-8"?>
<!DOCTYPE svg PUBLIC "-//W3C//DTD SVG 20010904//EN" "http://www.w3.org/TR/2001/REC-SVG-20010904/DTD/svg10.dtd">
<svg version="1.0" xmlns="http://www.w3.org/2000/svg" width="2002pt" height="1501pt" viewBox="0 0 2002 1501" preserveAspectRatio="xMidYMid meet">
<g fill="#00B2CEFF">
<path d="M 494.50 992.42 C 492.85 992.20 487.45 991.52 482.50 990.92 C 461.39 988.35 441.99 982.86 424.04 974.36 C 410.48 967.94 405.68 965.01 392.94 955.33 C 381.58 946.71 374.87 939.83 365.29 927.00 C 352.55 909.94 344.05 891.72 338.42 869.39 C 331.53 842.04 331.68 844.89 331.27 736.42 L 330.90 638.33 L 441.20 637.67 C 501.87 637.30 585.59 637.00 627.25 637.00 L 703.00 637.00 L 702.98 726.75 C 702.98 776.82 702.53 821.81 701.98 828.50 C 700.68 844.35 697.83 859.94 693.47 875.12 C 678.03 928.87 638.02 968.30 582.50 984.49 C 563.81 989.94 546.65 992.18 521.00 992.52 C 508.07 992.69 496.15 992.65 494.50 992.42ZM 500.60 952.75 C 501.06 946.01 501.44 940.07 501.46 939.54 C 501.48 939.02 496.55 937.84 490.50 936.94 C 476.23 934.79 466.32 932.01 454.81 926.92 C 440.82 920.74 442.43 920.25 435.25 932.85 C 431.81 938.88 429.00 944.12 429.00 944.48 C 429.00 944.84 433.61 947.31 439.25 949.96 C 455.14 957.43 466.56 960.66 490.00 964.34 C 491.38 964.55 494.14 964.79 496.14 964.86 L 499.78 965.00 L 500.60 952.75ZM 553.17 962.55 C 561.05 961.20 571.40 958.76 576.17 957.14 C 586.46 953.63 605.00 945.07 605.00 943.82 C 605.00 942.94 595.27 926.05 592.79 922.63 C 591.48 920.83 591.19 920.87 585.14 923.93 C 572.13 930.50 553.55 936.01 539.13 937.59 L 532.76 938.29 L 533.45 949.39 C 534.31 963.17 534.73 965.00 537.03 965.00 C 538.03 965.00 545.29 963.90 553.17 962.55ZM 409.52 911.88 L 418.95 902.76 L 414.59 897.63 C 405.11 886.46 398.82 874.36 393.84 857.67 L 391.50 849.83 L 387.50 850.37 C 385.30 850.66 379.34 851.87 374.25 853.04 C 367.53 854.59 365.00 855.60 365.00 856.71 C 365.00 859.43 371.66 878.24 375.77 887.12 C 381.22 898.92 396.45 921.00 399.13 921.00 C 399.66 921.00 404.33 916.90 409.52 911.88ZM 643.47 909.91 C 653.99 895.95 662.54 878.56 667.04 862.00 C 668.01 858.42 668.50 855.18 668.13 854.78 C 667.55 854.15 645.34 849.00 643.20 849.00 C 642.75 849.00 641.32 852.65 640.03 857.11 C 636.65 868.80 627.21 887.23 620.39 895.45 L 614.63 902.40 L 624.06 911.19 C 629.25 916.02 634.03 919.98 634.68 919.99 C 635.34 919.99 639.29 915.46 643.47 909.91ZM 537.50 839.03 C 553.22 833.56 564.51 821.64 568.51 806.31 C 570.09 800.23 570.64 763.41 569.35 749.75 L 568.71 743.00 L 546.11 743.13 C 533.67 743.20 511.35 743.54 496.50 743.88 L 469.50 744.50 L 469.81 771.00 C 469.98 785.58 470.58 800.20 471.15 803.50 C 474.37 822.26 491.42 838.26 511.50 841.37 C 517.76 842.34 531.56 841.09 537.50 839.03ZM 377.25 819.34 L 387.00 818.70 L 387.00 784.85 L 387.00 751.00 L 373.50 751.00 L 360.00 751.00 L 360.00 784.83 C 360.00 803.44 360.30 818.97 360.67 819.33 C 361.50 820.16 364.85 820.16 377.25 819.34ZM 673.00 784.47 L 673.00 749.94 L 659.75 750.22 L 646.50 750.50 L 646.24 784.20 L 645.97 817.89 L 651.24 818.26 C 654.13 818.46 660.21 818.71 664.75 818.82 L 673.00 819.00 L 673.00 784.47ZM 387.00 683.47 L 387.00 648.94 L 373.75 649.22 L 360.50 649.50 L 360.24 683.75 L 359.97 718.00 L 373.49 718.00 L 387.00 718.00 L 387.00 683.47ZM 673.00 682.47 L 673.00 647.94 L 659.75 648.22 L 646.50 648.50 L 646.24 682.75 L 645.97 717.00 L 659.49 717.00 L 673.00 717.00 L 673.00 682.47Z"/></g>
<g fill="#1C2550FF">
<path d="M 743.00 439.00 L 743.00 265.00 L 898.00 265.00 L 1053.00 265.00 L 1053.00 439.00 L 1053.00 613.00 L 898.00 613.00 L 743.00 613.00 L 743.00 439.00ZM 934.00 438.50 L 934.00 385.00 L 898.00 385.00 L 862.00 385.00 L 862.00 438.50 L 862.00 492.00 L 898.00 492.00 L 934.00 492.00 L 934.00 438.50Z"/></g>
<g fill="#1C2550FF">
<path d="M 1375.00 439.01 L 1375.00 265.00 L 1530.00 265.00 L 1685.00 265.00 L 1685.00 439.00 L 1685.00 613.00 L 1625.00 613.00 L 1565.01 613.00 L 1564.75 501.25 L 1564.50 389.50 L 1530.75 389.24 L 1497.01 388.97 L 1496.75 500.74 L 1496.50 612.50 L 1435.75 612.76 L 1375.00 613.02 L 1375.00 439.01Z"/></g>
<g fill="#00B2CEFF">
<path d="M 1190.00 927.00 L 1190.00 864.00 L 1258.00 864.00 L 1326.00 864.00 L 1326.00 814.50 L 1326.00 765.00 L 1259.00 765.00 L 1192.00 765.00 L 1192.00 702.50 L 1192.00 640.00 L 1324.00 640.00 L 1456.00 640.00 L 1456.00 752.00 L 1456.00 864.00 L 1472.50 864.00 L 1489.00 864.00 L 1489.00 927.00 L 1489.00 990.00 L 1339.50 990.00 L 1190.00 990.00 L 1190.00 927.00Z"/></g>
<g fill="#00B2CEFF">
<path d="M 900.00 927.07 L 900.00 864.13 L 944.25 863.74 C 991.83 863.32 992.14 863.29 1004.38 857.68 C 1015.13 852.76 1023.78 840.49 1026.00 827.00 C 1026.64 823.15 1026.96 809.30 1026.79 793.00 L 1026.50 765.50 L 963.25 765.24 L 900.00 764.99 L 900.00 701.99 L 900.00 639.00 L 1033.58 639.00 L 1167.17 639.00 L 1166.71 739.25 C 1166.33 823.86 1166.01 841.40 1164.65 851.67 C 1157.79 903.54 1141.09 937.34 1111.50 959.26 C 1102.18 966.16 1083.56 975.44 1070.00 979.95 C 1058.96 983.62 1037.62 987.50 1020.50 988.96 C 1013.90 989.52 984.09 989.98 954.25 989.99 L 900.00 990.00 L 900.00 927.07Z"/></g>
<g fill="#1C2550FF">
<path d="M 1081.00 550.60 L 1081.00 488.19 L 1124.75 487.75 C 1161.92 487.37 1169.40 487.05 1174.50 485.61 C 1192.48 480.53 1203.81 468.81 1207.00 451.98 C 1207.55 449.09 1208.00 433.74 1208.00 417.86 L 1208.00 389.00 L 1144.50 389.00 L 1081.00 389.00 L 1081.00 326.50 L 1081.00 264.00 L 1214.57 264.00 L 1348.15 264.00 L 1347.73 368.75 C 1347.37 459.75 1347.10 474.76 1345.68 483.09 C 1338.71 524.04 1325.55 552.88 1304.87 572.51 C 1286.56 589.91 1261.08 601.97 1229.00 608.43 C 1210.08 612.23 1194.48 612.99 1135.25 613.00 L 1081.00 613.00 L 1081.00 550.60Z"/></g>
<g fill="#00B2CEFF">
<path d="M 740.00 746.00 L 740.00 640.00 L 805.00 640.00 L 870.00 640.00 L 870.00 746.00 L 870.00 852.00 L 805.00 852.00 L 740.00 852.00 L 740.00 746.00Z"/></g>
<g fill="#D52B64FF">
<path d="M 473.75 626.00 C 473.43 625.17 472.88 620.90 472.54 616.50 C 471.15 598.66 464.12 566.27 457.01 544.91 C 452.58 531.62 443.59 510.86 435.83 496.00 C 428.44 481.84 413.20 457.97 406.18 449.55 C 403.91 446.83 402.16 444.51 402.28 444.39 C 402.52 444.16 437.00 432.91 476.50 420.17 C 490.25 415.73 520.17 406.03 543.00 398.60 C 596.90 381.06 612.95 376.10 613.39 376.87 C 614.43 378.67 627.16 418.66 628.94 425.70 C 644.63 487.73 647.77 544.14 638.13 591.00 L 636.38 599.50 L 636.82 582.87 C 637.51 556.48 634.54 534.27 625.44 497.96 C 621.14 480.79 608.49 443.05 602.55 429.69 C 600.56 425.21 599.57 423.99 598.23 424.38 C 587.89 427.40 559.66 435.42 534.50 442.50 C 491.98 454.46 462.78 462.89 462.34 463.32 C 462.14 463.52 463.51 468.37 465.38 474.09 C 473.06 497.63 476.82 522.84 477.68 556.51 C 478.39 584.30 475.74 631.07 473.75 626.00Z"/></g>
<g fill="#D52B64FF">
<path d="M 805.39 1133.56 C 798.00 1131.90 791.68 1128.80 789.60 1125.84 C 786.64 1121.62 785.55 1113.57 786.82 1105.39 C 789.77 1086.47 803.01 1072.60 831.00 1059.09 C 844.32 1052.67 852.01 1050.68 864.00 1050.58 C 874.99 1050.49 880.20 1051.94 881.85 1055.58 C 885.23 1062.98 881.84 1081.76 874.42 1096.84 C 868.77 1108.33 862.21 1115.14 848.96 1123.28 C 833.58 1132.73 818.03 1136.40 805.39 1133.56ZM 823.54 1125.91 C 839.43 1122.97 857.92 1110.00 864.35 1097.29 C 868.29 1089.50 872.83 1075.62 873.57 1069.11 C 874.12 1064.21 873.92 1062.52 872.52 1060.39 C 870.80 1057.77 870.70 1057.75 861.14 1058.23 C 849.02 1058.84 840.64 1061.67 825.80 1070.16 C 813.24 1077.35 804.51 1085.72 799.35 1095.52 C 795.74 1102.38 793.54 1111.73 794.42 1116.44 C 795.99 1124.79 808.17 1128.75 823.54 1125.91Z"/></g>
<g fill="#D52B64FF">
<path d="M 778.00 1234.51 C 771.97 1232.53 761.37 1224.35 756.75 1218.11 C 753.46 1213.67 751.99 1210.00 753.50 1210.00 C 753.78 1210.00 757.16 1213.32 761.02 1217.38 C 770.09 1226.93 775.37 1229.44 786.50 1229.47 C 792.86 1229.49 796.09 1228.92 802.25 1226.65 C 806.51 1225.08 810.00 1223.62 810.00 1223.41 C 810.00 1223.19 808.42 1220.95 806.50 1218.43 C 803.30 1214.23 801.91 1209.99 803.75 1210.01 C 804.16 1210.01 805.52 1211.52 806.78 1213.36 C 808.03 1215.20 810.17 1217.75 811.53 1219.03 L 814.01 1221.36 L 822.40 1215.66 C 832.92 1208.51 842.40 1198.58 852.16 1184.48 C 874.98 1151.52 891.11 1119.03 913.95 1060.00 C 916.83 1052.58 919.55 1046.11 920.02 1045.62 C 921.57 1043.99 926.00 1045.88 926.00 1048.17 C 926.00 1051.98 912.38 1090.26 904.50 1108.61 C 891.10 1139.80 874.64 1168.84 857.53 1191.50 C 848.41 1203.57 832.75 1219.37 826.19 1223.11 C 823.90 1224.43 822.01 1225.77 822.01 1226.09 C 821.99 1227.32 827.43 1229.08 833.09 1229.67 C 843.91 1230.80 856.41 1226.51 871.42 1216.52 C 888.53 1205.13 906.97 1180.82 926.82 1143.50 C 938.66 1121.24 961.76 1068.02 967.95 1048.75 C 968.88 1045.85 969.68 1045.00 971.46 1045.00 C 977.46 1045.00 976.47 1050.18 963.92 1084.23 C 939.05 1151.72 901.54 1208.93 870.80 1226.27 C 857.19 1233.93 852.19 1235.43 839.92 1235.47 C 829.90 1235.50 829.00 1235.33 823.01 1232.24 L 816.68 1228.98 L 808.59 1232.12 C 798.79 1235.93 785.48 1236.97 778.00 1234.51Z"/></g>
<g fill="#1C2550FF">
<path d="M 446.10 603.83 C 439.85 584.36 423.61 558.63 404.98 538.72 C 395.03 528.09 376.78 512.71 363.27 503.58 L 353.04 496.66 L 362.77 490.74 C 368.12 487.49 376.32 482.45 381.00 479.54 C 385.68 476.64 391.43 473.19 393.79 471.88 L 398.09 469.50 L 400.79 472.57 C 402.28 474.26 406.54 479.33 410.26 483.84 L 417.02 492.04 L 414.44 493.02 C 413.03 493.56 411.61 494.00 411.29 494.00 C 409.00 494.00 397.00 498.29 397.00 499.11 C 397.00 499.68 399.04 502.47 401.54 505.32 C 421.03 527.53 436.93 560.13 446.03 596.47 C 449.59 610.67 449.62 614.83 446.10 603.83Z"/></g>
<g fill="#D52B64FF">
<path d="M 1030.50 1142.06 C 1025.55 1140.85 1019.42 1137.28 1016.67 1134.01 C 1010.12 1126.24 1012.54 1111.62 1023.03 1095.55 C 1028.82 1086.68 1034.61 1080.90 1044.69 1073.94 C 1064.25 1060.41 1081.32 1058.10 1086.67 1068.27 C 1088.97 1072.64 1089.22 1086.50 1087.00 1086.50 C 1085.96 1086.50 1085.34 1085.09 1084.97 1081.91 C 1084.00 1073.45 1078.73 1068.28 1072.25 1069.45 C 1065.77 1070.63 1052.83 1077.62 1044.07 1084.69 C 1030.04 1096.01 1021.27 1111.16 1022.20 1122.45 C 1022.73 1128.75 1025.49 1133.02 1030.73 1135.63 C 1036.09 1138.29 1048.50 1138.01 1056.25 1135.05 C 1065.46 1131.54 1079.62 1121.57 1089.51 1111.63 C 1103.11 1097.97 1111.14 1083.97 1114.49 1068.07 C 1117.91 1051.77 1115.66 1042.23 1107.20 1037.27 C 1101.18 1033.74 1095.26 1033.79 1083.69 1037.47 C 1074.71 1040.33 1073.75 1040.23 1072.59 1036.39 C 1072.04 1034.57 1072.76 1033.93 1077.77 1031.76 C 1092.77 1025.25 1102.21 1025.79 1110.93 1033.63 C 1121.33 1042.98 1125.24 1057.63 1121.58 1073.50 C 1117.79 1089.89 1102.79 1113.37 1089.23 1124.15 C 1071.65 1138.12 1046.17 1145.89 1030.50 1142.06Z"/></g>
<g fill="#D52B64FF">
<path d="M 1212.69 1235.03 C 1204.17 1231.70 1193.16 1221.84 1189.85 1214.57 C 1187.75 1209.97 1189.99 1210.45 1194.30 1215.53 C 1200.74 1223.14 1203.05 1225.07 1208.91 1227.79 C 1222.81 1234.23 1240.23 1230.27 1259.99 1216.18 C 1277.53 1203.68 1297.01 1176.68 1317.19 1136.90 C 1329.73 1112.18 1343.44 1080.33 1353.52 1052.50 C 1354.52 1049.75 1355.67 1047.11 1356.09 1046.62 C 1357.13 1045.42 1361.66 1046.67 1362.30 1048.33 C 1363.34 1051.04 1349.15 1090.84 1338.70 1114.55 C 1322.13 1152.14 1298.98 1189.44 1279.56 1209.83 C 1268.78 1221.15 1253.50 1230.99 1240.64 1234.91 C 1231.73 1237.63 1219.47 1237.68 1212.69 1235.03Z"/></g>
<g fill="#00B2CEFF">
<path d="M 422.50 611.39 C 384.39 580.57 344.13 554.37 322.70 546.46 C 320.07 545.49 318.27 544.35 318.70 543.93 C 319.90 542.79 360.34 518.21 361.65 517.83 C 363.04 517.43 376.30 532.71 375.57 533.88 C 375.29 534.34 370.77 537.28 365.53 540.41 C 360.29 543.53 356.00 546.41 356.01 546.80 C 356.01 547.18 357.92 548.57 360.26 549.88 C 374.40 557.82 392.09 572.58 408.50 590.11 C 417.98 600.24 432.45 618.29 430.81 617.93 C 430.64 617.90 426.90 614.95 422.50 611.39Z"/></g>
<g fill="#D52B64FF">
<path d="M 1134.58 1230.12 C 1134.28 1229.64 1135.51 1227.28 1137.32 1224.87 C 1142.48 1218.01 1144.18 1214.82 1153.94 1193.50 C 1173.62 1150.52 1180.74 1138.21 1197.73 1117.75 C 1211.05 1101.72 1229.89 1089.90 1251.00 1084.33 C 1262.66 1081.25 1266.00 1078.97 1266.00 1074.08 C 1266.00 1070.28 1261.22 1066.79 1252.14 1063.97 C 1244.32 1061.54 1238.61 1061.49 1224.69 1063.69 C 1215.47 1065.16 1213.74 1065.20 1213.00 1064.01 C 1209.38 1058.14 1225.43 1053.15 1244.17 1054.32 C 1254.52 1054.96 1261.74 1058.04 1269.24 1065.00 C 1275.29 1070.62 1276.28 1074.73 1273.12 1081.25 C 1270.45 1086.78 1266.09 1089.30 1254.57 1091.98 C 1231.47 1097.37 1208.31 1113.82 1192.97 1135.74 C 1184.99 1147.13 1181.45 1153.40 1163.72 1187.50 C 1156.00 1202.35 1148.34 1216.53 1146.70 1219.00 C 1141.37 1227.01 1135.81 1232.12 1134.58 1230.12Z"/></g>
<g fill="#D52B64FF">
<path d="M 352.64 1152.54 C 348.48 1151.05 343.00 1146.41 343.00 1144.37 C 343.00 1141.84 345.24 1141.85 347.90 1144.41 C 352.15 1148.47 360.06 1149.77 368.30 1147.73 C 382.69 1144.18 398.01 1134.14 412.82 1118.55 C 421.48 1109.44 426.69 1101.62 437.50 1081.58 C 446.99 1063.99 449.33 1061.83 459.63 1061.17 C 467.52 1060.67 471.00 1062.02 475.56 1067.34 C 480.23 1072.80 482.00 1079.30 482.00 1090.97 C 482.00 1106.61 478.86 1115.41 469.80 1125.17 C 464.74 1130.63 460.67 1132.14 458.17 1129.51 C 456.80 1128.08 456.75 1127.67 457.89 1127.25 C 460.93 1126.14 467.42 1119.27 469.17 1115.33 C 472.05 1108.85 474.02 1093.60 472.83 1087.05 C 470.92 1076.59 465.50 1070.01 458.77 1070.00 C 454.34 1070.00 450.63 1074.55 442.89 1089.50 C 430.60 1113.24 423.45 1122.17 406.56 1134.88 C 395.19 1143.43 390.92 1146.07 384.00 1148.80 C 371.53 1153.71 359.84 1155.10 352.64 1152.54Z"/></g>
<g fill="#D52B64FF">
<path d="M 1392.00 1146.47 C 1392.00 1145.63 1395.77 1137.19 1400.39 1127.72 C 1405.00 1118.25 1411.11 1105.10 1413.96 1098.50 C 1421.20 1081.79 1434.54 1056.62 1437.99 1053.16 C 1441.59 1049.56 1444.95 1048.86 1453.10 1050.01 C 1458.55 1050.77 1459.97 1051.42 1462.69 1054.37 C 1467.30 1059.38 1468.51 1064.57 1468.43 1079.00 C 1468.36 1093.37 1467.17 1097.81 1458.89 1114.56 C 1453.62 1125.23 1447.24 1133.45 1441.46 1137.02 C 1438.17 1139.06 1437.79 1139.09 1435.49 1137.59 L 1433.04 1135.98 L 1439.77 1129.24 C 1451.46 1117.53 1458.90 1099.36 1459.74 1080.38 C 1460.51 1063.32 1458.29 1058.90 1448.87 1058.64 L 1443.63 1058.50 L 1434.81 1075.50 C 1429.96 1084.85 1423.70 1097.65 1420.89 1103.95 C 1409.26 1130.08 1405.33 1137.40 1400.04 1142.76 C 1394.88 1148.01 1392.00 1149.34 1392.00 1146.47Z"/></g>
<g fill="#D52B64FF">
<path d="M 603.00 1144.16 C 603.00 1143.14 607.43 1133.13 612.84 1121.91 C 618.24 1110.68 623.27 1099.92 624.00 1098.00 C 626.37 1091.76 644.84 1055.48 647.12 1052.58 C 650.55 1048.22 655.13 1046.75 662.74 1047.56 C 675.12 1048.89 679.55 1056.58 679.43 1076.50 C 679.38 1085.74 678.92 1088.86 676.57 1096.00 C 668.17 1121.48 651.27 1142.06 644.98 1134.48 C 644.28 1133.64 643.89 1132.81 644.11 1132.65 C 644.32 1132.48 646.27 1131.03 648.43 1129.42 C 653.28 1125.81 660.75 1114.55 664.90 1104.58 C 669.34 1093.91 671.69 1078.02 670.27 1068.19 C 668.97 1059.13 667.32 1057.18 660.26 1056.34 C 655.26 1055.75 655.08 1055.82 653.03 1059.12 C 649.76 1064.39 633.30 1097.16 631.03 1102.92 C 629.91 1105.75 626.13 1114.09 622.62 1121.43 C 617.68 1131.79 615.03 1136.05 610.82 1140.39 C 605.16 1146.24 603.00 1147.28 603.00 1144.16Z"/></g>
<g fill="#D52B64FF">
<path d="M 543.30 556.79 C 541.93 555.06 535.77 514.81 536.74 513.94 C 537.16 513.57 538.95 512.99 540.73 512.66 C 543.19 512.20 544.18 512.47 544.86 513.78 C 545.35 514.73 546.80 522.86 548.09 531.86 L 550.43 548.22 L 557.47 547.53 C 573.70 545.96 578.99 543.54 582.23 536.22 C 584.14 531.92 584.23 530.80 583.26 523.50 C 578.59 488.37 578.64 488.84 580.10 487.89 C 580.87 487.39 582.84 487.10 584.47 487.24 L 587.44 487.50 L 590.18 505.50 C 594.36 532.92 593.95 538.44 587.11 546.22 C 582.87 551.05 577.83 552.87 562.50 555.11 C 555.35 556.15 548.33 557.25 546.91 557.55 C 545.38 557.87 543.90 557.56 543.30 556.79Z"/></g>
<g fill="#D52B64FF">
<path d="M 521.53 560.05 C 521.15 559.43 520.15 553.65 519.32 547.21 C 518.48 540.77 516.55 527.40 515.03 517.50 C 513.46 507.27 512.63 499.03 513.11 498.42 C 513.58 497.83 521.16 496.29 529.96 495.01 C 544.01 492.96 546.64 492.82 551.58 493.93 C 558.04 495.38 563.97 500.06 567.10 506.20 C 569.05 510.02 572.36 528.50 571.80 532.38 C 571.45 534.77 565.60 536.48 564.16 534.62 C 563.69 534.00 562.76 529.51 562.09 524.64 C 560.63 513.85 558.71 508.77 554.84 505.52 C 549.95 501.40 545.53 500.77 533.89 502.52 C 528.23 503.37 523.38 504.29 523.10 504.56 C 522.83 504.84 524.28 517.26 526.34 532.16 C 528.39 547.06 529.95 559.38 529.79 559.54 C 528.70 560.60 522.12 561.01 521.53 560.05Z"/></g>
<g fill="#D52B64FF">
<path d="M 1257.61 1153.17 C 1257.32 1152.71 1259.17 1149.24 1261.71 1145.45 C 1266.72 1137.99 1285.16 1097.12 1297.11 1067.00 C 1299.18 1061.78 1303.09 1052.33 1305.80 1046.00 C 1311.24 1033.31 1312.68 1032.10 1317.46 1036.21 L 1320.15 1038.53 L 1315.47 1048.51 C 1312.89 1054.01 1307.73 1065.47 1304.00 1074.00 C 1287.58 1111.55 1283.66 1120.02 1277.28 1131.78 C 1268.18 1148.55 1260.15 1157.28 1257.61 1153.17Z"/></g>
<g fill="#D52B64FF">
<path d="M 508.28 1151.20 C 507.41 1150.64 508.44 1148.35 511.92 1143.11 C 516.57 1136.13 526.17 1115.04 542.02 1077.00 C 559.40 1035.31 560.68 1032.50 562.48 1032.15 C 564.60 1031.74 568.69 1033.76 569.39 1035.56 C 569.66 1036.27 567.04 1043.07 563.56 1050.67 C 560.09 1058.28 552.40 1075.53 546.47 1089.00 C 531.37 1123.34 522.02 1140.91 514.66 1148.75 C 511.52 1152.10 510.38 1152.53 508.28 1151.20Z"/></g>
<g fill="#D52B64FF">
<path d="M 551.56 1151.09 C 551.25 1150.60 553.27 1146.83 556.04 1142.72 C 560.77 1135.73 568.39 1119.48 578.45 1095.00 C 580.82 1089.22 585.22 1078.65 588.23 1071.50 C 591.25 1064.35 596.09 1052.77 598.99 1045.77 C 604.40 1032.74 605.98 1030.85 609.79 1032.89 C 614.00 1035.14 614.27 1036.53 611.56 1041.87 C 610.16 1044.64 603.12 1060.31 595.93 1076.70 C 582.34 1107.64 569.91 1133.24 564.72 1141.00 C 558.68 1150.03 553.40 1154.08 551.56 1151.09Z"/></g>
<g fill="#777B93FF">
<path d="M 742.46 612.75 C 742.20 612.06 742.10 533.20 742.25 437.50 L 742.51 263.50 L 742.75 438.25 L 743.00 613.00 L 898.00 613.00 L 1052.99 613.00 L 1053.25 438.75 L 1053.51 264.50 L 1053.50 439.00 L 1053.50 613.50 L 898.22 613.75 C 774.52 613.95 742.84 613.75 742.46 612.75Z"/></g>
</svg>
